<?xml version="1.0" encoding="UTF-8" standalone="no"?>
<svg
   viewBox="0 0 576 512"
   version="1.1"
   id="svg1"
   sodipodi:docname="folder-open-v1-363945.svg"
   inkscape:version="1.3.2 (091e20e, 2023-11-25, custom)"
   xmlns:inkscape="http://www.inkscape.org/namespaces/inkscape"
   xmlns:sodipodi="http://sodipodi.sourceforge.net/DTD/sodipodi-0.dtd"
   xmlns="http://www.w3.org/2000/svg"
   xmlns:svg="http://www.w3.org/2000/svg">
  <defs
     id="defs1" />
  <sodipodi:namedview
     id="namedview1"
     pagecolor="#ffffff"
     bordercolor="#000000"
     borderopacity="0.25"
     inkscape:showpageshadow="2"
     inkscape:pageopacity="0.0"
     inkscape:pagecheckerboard="0"
     inkscape:deskcolor="#d1d1d1"
     inkscape:zoom="1.6035156"
     inkscape:cx="287.80512"
     inkscape:cy="256"
     inkscape:window-width="1153"
     inkscape:window-height="911"
     inkscape:window-x="585"
     inkscape:window-y="7"
     inkscape:window-maximized="0"
     inkscape:current-layer="svg1" />
  <!--! Font Awesome Free 6.5.2 by @fontawesome - https://fontawesome.com License - https://fontawesome.com/license/free (Icons: CC BY 4.0, Fonts: SIL OFL 1.1, Code: MIT License) Copyright 2024 Fonticons, Inc. -->
  <path
     d="M88.7 223.8L0 375.8V96C0 60.7 28.7 32 64 32H181.5c17 0 33.3 6.7 45.3 18.7l26.5 26.5c12 12 28.3 18.7 45.3 18.7H416c35.3 0 64 28.7 64 64v32H144c-22.8 0-43.8 12.1-55.3 31.8zm27.6 16.1C122.1 230 132.6 224 144 224H544c11.5 0 22 6.1 27.7 16.1s5.7 22.2-.1 32.1l-112 192C453.9 474 443.4 480 432 480H32c-11.5 0-22-6.1-27.7-16.1s-5.7-22.2 .1-32.1l112-192z"
     id="path1"
     style="fill:#363945;fill-opacity:1" />
</svg>
